<?xml version="1.0" encoding="UTF-8" standalone="no"?>
<svg
   viewBox="0 0 175.87592 54.228943"
   width="175.87592"
   height="54.228943"
   version="1.1"
   id="svg15"
   xml:space="preserve"
   xmlns="http://www.w3.org/2000/svg"
   xmlns:svg="http://www.w3.org/2000/svg"><defs
     id="defs15"><linearGradient
       id="linearGradient5276"><stop
         id="stop5274"
         offset="0"
         style="stop-color:#000000;stop-opacity:1;" /></linearGradient></defs><title
     id="title1">HydroElasticFEM.jl Top Figure Logo</title><circle
     cx="95.340775"
     cy="20.80114"
     r="13.11834"
     fill="#389826"
     id="circle1"
     style="stroke-width:0.819896" /><circle
     cx="61.949207"
     cy="13.11834"
     r="13.11834"
     fill="#cb3c33"
     id="circle2"
     style="stroke-width:0.819896" /><circle
     cx="127.06273"
     cy="18.067451"
     r="13.11834"
     fill="#9558b2"
     id="circle3"
     style="stroke-width:0.819896" /><path
     id="path4763-54"
     d="M 0.45555914,48.947727 C 4.5888092,49.450577 10.5908,34.764455 16.49535,33.758489 c 5.90462,-1.006037 9.18725,16.698338 15.69738,16.698268 6.79026,-7e-5 15.42653,-13.272492 23.54531,-12.769509"
     style="fill:none;stroke:#0000b7;stroke-width:7.54437;stroke-linecap:butt;stroke-linejoin:miter;stroke-miterlimit:4;stroke-dasharray:none;stroke-opacity:1" /><path
     id="path4763-54-0"
     d="m 133.08187,41.978111 c 9.33706,0.676743 13.39192,-3.841265 21.5645,-3.841335 7.7809,0 15.36459,4.042752 20.82211,3.449815"
     style="fill:none;stroke:#0000b7;stroke-width:7.54437;stroke-linecap:butt;stroke-linejoin:miter;stroke-miterlimit:4;stroke-dasharray:none;stroke-opacity:1" /><path
     id="path4767-32"
     d="m 42.12477,43.989137 c 11.8847,-6.543253 13.35252,-7.806929 23.19856,-7.158889 15.06688,0.99158 18.11178,8.441839 31.30111,9.149029 9.97919,0.53498 20.69957,-3.320163 38.53006,-4.10795"
     style="fill:none;stroke:#000000;stroke-width:14.1457;stroke-linecap:butt;stroke-linejoin:miter;stroke-miterlimit:4;stroke-dasharray:none;stroke-opacity:1" /></svg>
